<?xml version="1.0" encoding="utf-8"?>
<svg version="1.1" xmlns:xlink="http://www.w3.org/1999/xlink" width="29px" height="34px" xmlns="http://www.w3.org/2000/svg">
  <g transform="matrix(1 0 0 1 -1732 -279 )">
    <path d="M 28.807421875000003 24.581380208333332  C 28.935807291666666 25.695529513888886  29 26.879774305555554  29 28.134114583333336  C 29 29.74262152777778  28.527994791666668 31.122395833333336  27.583984375 32.2734375  C 26.639973958333336 33.424479166666664  25.50338541666667 34  24.17421875 34  L 4.82578125 34  C 3.4966145833333333 34  2.360026041666667 33.424479166666664  1.4160156250000002 32.2734375  C 0.4720052083333335 31.122395833333336  0 29.74262152777778  0 28.134114583333336  C 0 26.879774305555554  0.06419270833333349 25.695529513888886  0.19257812500000018 24.581380208333332  C 0.32096354166666685 23.46723090277777  0.5588541666666668 22.345703125  0.9062500000000002 21.216796875  C 1.2536458333333338 20.087890625  1.6954427083333337 19.12131076388889  2.231640625 18.317057291666668  C 2.7678385416666673 17.512803819444443  3.477734375 16.856119791666664  4.361328125 16.347005208333336  C 5.244921874999999 15.837890625  6.260677083333334 15.583333333333334  7.4085937500000005 15.583333333333334  C 9.387239583333335 17.47222222222222  11.75104166666667 18.416666666666668  14.5 18.416666666666668  C 17.248958333333338 18.416666666666668  19.61276041666667 17.47222222222222  21.59140625 15.583333333333334  C 22.73932291666667 15.583333333333334  23.755078124999997 15.837890625  24.638671875 16.347005208333336  C 25.522265625000003 16.856119791666664  26.232161458333337 17.512803819444443  26.768359375000003 18.317057291666668  C 27.30455729166667 19.12131076388889  27.746354166666666 20.087890625  28.09375 21.216796875  C 28.441145833333337 22.345703125  28.679036458333336 23.46723090277777  28.807421875000003 24.581380208333332  Z M 20.651171875000003 2.490234375  C 22.350390625000003 4.150390625  23.200000000000003 6.153645833333335  23.200000000000003 8.5  C 23.200000000000003 10.846354166666666  22.350390625000003 12.849609375  20.651171875000003 14.509765625  C 18.951953125000003 16.169921875  16.901562499999997 17  14.5 17  C 12.0984375 17  10.048046875 16.169921875  8.348828125 14.509765625  C 6.649609375000001 12.849609375  5.800000000000001 10.846354166666666  5.800000000000001 8.5  C 5.800000000000001 6.153645833333335  6.649609375000001 4.150390625  8.348828125 2.490234375  C 10.048046875 0.830078125  12.0984375 0  14.5 0  C 16.901562499999997 0  18.951953125000003 0.830078125  20.651171875000003 2.490234375  Z " fill-rule="nonzero" fill="#ffffff" stroke="none" fill-opacity="0.996078431372549" transform="matrix(1 0 0 1 1732 279 )" />
  </g>
</svg>