<?xml version="1.0" encoding="utf-8"?>
<svg version="1.1" xmlns:xlink="http://www.w3.org/1999/xlink" width="30px" height="24px" xmlns="http://www.w3.org/2000/svg">
  <g transform="matrix(1 0 0 1 -483 -727 )">
    <path d="M 27.1875 21.34090909090909  C 27.52403846153846 21.02272727272727  27.692307692307693 20.636363636363637  27.692307692307693 20.181818181818183  L 27.692307692307693 8.181818181818183  C 27.692307692307693 7.727272727272726  27.52403846153846 7.340909090909089  27.1875 7.0227272727272725  C 26.85096153846154 6.704545454545453  26.442307692307693 6.545454545454545  25.961538461538463 7  L 13.269230769230768 7  C 12.78846153846154 6.545454545454545  12.379807692307693 6.386363636363634  12.043269230769232 6.0681818181818175  C 11.70673076923077 5.749999999999998  11.538461538461538 5.3636363636363615  11.538461538461538 4.90909090909091  L 11.538461538461538 3.8181818181818175  C 11.538461538461538 3.3636363636363633  11.370192307692308 2.977272727272724  11.033653846153847 2.65909090909091  C 10.697115384615385 2.340909090909091  10.28846153846154 2.1818181818181825  9.807692307692308 2.1818181818181825  L 4.038461538461538 2.1818181818181825  C 3.557692307692308 2.1818181818181825  3.149038461538462 2.340909090909091  2.8125 2.65909090909091  C 2.4759615384615388 2.977272727272724  2.307692307692308 3.3636363636363633  2.307692307692308 3.8181818181818175  L 2.307692307692308 20.181818181818183  C 2.307692307692308 20.636363636363637  2.4759615384615388 21.02272727272727  2.8125 21.34090909090909  C 3.149038461538462 21.659090909090914  3.557692307692308 21.818181818181817  4.038461538461538 21.818181818181817  L 25.961538461538463 21.818181818181817  C 26.442307692307693 21.818181818181817  26.85096153846154 21.659090909090914  27.1875 21.34090909090909  Z M 28.810096153846153 5.488636363636362  C 29.603365384615383 6.238636363636362  30 7.136363636363634  30 8.181818181818183  L 30 20.181818181818183  C 30 21.227272727272727  29.603365384615383 22.125  28.810096153846153 22.875  C 28.016826923076923 23.625  27.067307692307697 24  25.961538461538463 24  L 4.038461538461538 24  C 2.932692307692308 24  1.9831730769230773 23.625  1.189903846153846 22.875  C 0.39663461538461536 22.125  0 21.227272727272727  0 20.181818181818183  L 0 3.8181818181818175  C 0 2.772727272727269  0.39663461538461536 1.875  1.189903846153846 1.125  C 1.9831730769230773 0.375  2.932692307692308 0  4.038461538461538 0  L 9.807692307692308 0  C 10.91346153846154 0  11.862980769230768 0.375  12.65625 1.125  C 13.449519230769232 1.875  13.846153846153847 2.772727272727269  13.846153846153847 3.8181818181818175  L 13.846153846153847 4.363636363636362  L 25.961538461538463 4.363636363636362  C 27.067307692307697 4.363636363636362  28.016826923076923 4.738636363636362  28.810096153846153 5.488636363636362  Z " fill-rule="nonzero" fill="#ffffff" stroke="none" fill-opacity="0.996078431372549" transform="matrix(1 0 0 1 483 727 )" />
  </g>
</svg>