<?xml version="1.0" encoding="utf-8"?>
<svg version="1.1" xmlns:xlink="http://www.w3.org/1999/xlink" width="32px" height="30px" xmlns="http://www.w3.org/2000/svg">
  <g transform="matrix(1 0 0 1 -524 -471 )">
    <path d="M 8.533333333333333 10.714285714285714  C 8.533333333333333 12.265624999999998  8.983333333333333 13.694196428571429  9.883333333333333 15  C 8.083333333333334 15.055803571428573  6.611111111111112 15.770089285714285  5.466666666666667 17.142857142857142  L 3.2333333333333334 17.142857142857142  C 2.322222222222222 17.142857142857142  1.5555555555555558 16.91685267857143  0.9333333333333333 16.46484375  C 0.31111111111111106 16.01283482142857  0 15.3515625  0 14.481026785714286  C 0 10.54129464285714  0.6888888888888888 8.571428571428571  2.066666666666667 8.571428571428571  C 2.1333333333333333 8.571428571428571  2.375 8.688616071428571  2.7916666666666665 8.922991071428571  C 3.2083333333333335 9.157366071428571  3.75 9.394531249999998  4.416666666666667 9.634486607142858  C 5.083333333333333 9.874441964285714  5.7444444444444445 9.994419642857142  6.4 9.994419642857142  C 7.144444444444445 9.994419642857142  7.883333333333334 9.866071428571427  8.616666666666667 9.609375  C 8.561111111111112 10.022321428571425  8.533333333333333 10.390624999999998  8.533333333333333 10.714285714285714  Z M 27.675 23.931361607142858  C 27.713888888888892 24.494977678571427  27.733333333333334 25.072544642857146  27.733333333333334 25.6640625  C 27.733333333333334 27.00334821428571  27.32777777777778 28.060825892857146  26.516666666666666 28.83649553571429  C 25.70555555555556 29.612165178571427  24.62777777777778 30  23.283333333333335 30  L 8.716666666666667 30  C 7.372222222222223 30  6.294444444444446 29.612165178571427  5.483333333333333 28.83649553571429  C 4.6722222222222225 28.060825892857146  4.266666666666667 27.00334821428571  4.266666666666667 25.6640625  C 4.266666666666667 25.072544642857146  4.286111111111111 24.494977678571427  4.325 23.931361607142858  C 4.36388888888889 23.367745535714285  4.441666666666666 22.759486607142858  4.558333333333334 22.10658482142857  C 4.675 21.453683035714285  4.822222222222223 20.848214285714285  5 20.29017857142857  C 5.177777777777778 19.732142857142854  5.416666666666667 19.18805803571428  5.716666666666667 18.657924107142858  C 6.016666666666667 18.127790178571427  6.361111111111112 17.675781249999996  6.75 17.30189732142857  C 7.138888888888889 16.928013392857146  7.61388888888889 16.629464285714285  8.175 16.40625  C 8.736111111111112 16.18303571428571  9.355555555555556 16.07142857142857  10.033333333333333 16.07142857142857  C 10.144444444444446 16.07142857142857  10.383333333333333 16.19140625  10.75 16.431361607142858  C 11.116666666666667 16.671316964285715  11.522222222222222 16.939174107142854  11.966666666666667 17.234933035714285  C 12.411111111111113 17.53069196428571  13.005555555555556 17.798549107142854  13.75 18.038504464285715  C 14.494444444444445 18.278459821428573  15.244444444444445 18.3984375  16 18.3984375  C 16.755555555555556 18.3984375  17.505555555555556 18.278459821428573  18.25 18.038504464285715  C 18.994444444444447 17.798549107142854  19.588888888888892 17.53069196428571  20.033333333333335 17.234933035714285  C 20.477777777777778 16.939174107142854  20.883333333333333 16.671316964285715  21.25 16.431361607142858  C 21.616666666666667 16.19140625  21.855555555555558 16.07142857142857  21.966666666666665 16.07142857142857  C 22.644444444444446 16.07142857142857  23.263888888888893 16.18303571428571  23.825 16.40625  C 24.386111111111113 16.629464285714285  24.86111111111111 16.928013392857146  25.25 17.30189732142857  C 25.638888888888893 17.675781249999996  25.983333333333334 18.127790178571427  26.283333333333335 18.657924107142858  C 26.583333333333332 19.18805803571428  26.822222222222226 19.732142857142854  27 20.29017857142857  C 27.17777777777778 20.848214285714285  27.325 21.453683035714285  27.441666666666666 22.10658482142857  C 27.558333333333334 22.759486607142858  27.636111111111113 23.367745535714285  27.675 23.931361607142858  Z M 9.416666666666666 1.255580357142858  C 10.25 2.092633928571429  10.666666666666666 3.1026785714285685  10.666666666666666 4.285714285714287  C 10.666666666666666 5.468749999999999  10.25 6.478794642857142  9.416666666666666 7.315848214285713  C 8.583333333333334 8.152901785714286  7.577777777777778 8.571428571428571  6.4 8.571428571428571  C 5.222222222222223 8.571428571428571  4.216666666666667 8.152901785714286  3.3833333333333333 7.315848214285713  C 2.55 6.478794642857142  2.1333333333333333 5.468749999999999  2.1333333333333333 4.285714285714287  C 2.1333333333333333 3.1026785714285685  2.55 2.092633928571429  3.3833333333333333 1.255580357142858  C 4.216666666666667 0.41852678571428714  5.222222222222223 0  6.4 0  C 7.577777777777778 0  8.583333333333334 0.41852678571428714  9.416666666666666 1.255580357142858  Z M 20.525 6.169084821428571  C 21.775 7.424665178571429  22.4 8.939732142857142  22.4 10.714285714285714  C 22.4 12.488839285714286  21.775 14.00390625  20.525 15.259486607142858  C 19.275 16.515066964285715  17.766666666666666 17.142857142857142  16 17.142857142857142  C 14.233333333333336 17.142857142857142  12.725000000000001 16.515066964285715  11.475 15.259486607142858  C 10.225 14.00390625  9.6 12.488839285714286  9.6 10.714285714285714  C 9.6 8.939732142857142  10.225 7.424665178571429  11.475 6.169084821428571  C 12.725000000000001 4.913504464285713  14.233333333333336 4.285714285714287  16 4.285714285714287  C 17.766666666666666 4.285714285714287  19.275 4.913504464285713  20.525 6.169084821428571  Z M 29.933333333333334 8.571428571428571  C 31.311111111111117 8.571428571428571  32.00000000000001 10.54129464285714  32 14.481026785714286  C 32.00000000000001 15.3515625  31.68888888888889 16.01283482142857  31.066666666666666 16.46484375  C 30.444444444444446 16.91685267857143  29.67777777777778 17.142857142857142  28.766666666666666 17.142857142857142  L 26.533333333333335 17.142857142857142  C 25.388888888888893 15.770089285714285  23.916666666666668 15.055803571428573  22.116666666666667 15  C 23.016666666666666 13.694196428571429  23.466666666666665 12.265624999999998  23.466666666666665 10.714285714285714  C 23.466666666666665 10.390624999999998  23.43888888888889 10.022321428571425  23.383333333333333 9.609375  C 24.116666666666667 9.866071428571427  24.855555555555558 9.994419642857142  25.6 9.994419642857142  C 26.255555555555556 9.994419642857142  26.916666666666668 9.874441964285714  27.583333333333332 9.634486607142858  C 28.25 9.394531249999998  28.791666666666668 9.157366071428571  29.208333333333332 8.922991071428571  C 29.625 8.688616071428571  29.866666666666667 8.571428571428571  29.933333333333334 8.571428571428571  Z M 28.616666666666667 1.255580357142858  C 29.45 2.092633928571429  29.866666666666667 3.1026785714285685  29.866666666666667 4.285714285714287  C 29.866666666666667 5.468749999999999  29.45 6.478794642857142  28.616666666666667 7.315848214285713  C 27.783333333333335 8.152901785714286  26.77777777777778 8.571428571428571  25.6 8.571428571428571  C 24.422222222222224 8.571428571428571  23.416666666666668 8.152901785714286  22.583333333333332 7.315848214285713  C 21.75 6.478794642857142  21.333333333333332 5.468749999999999  21.333333333333332 4.285714285714287  C 21.333333333333332 3.1026785714285685  21.75 2.092633928571429  22.583333333333332 1.255580357142858  C 23.416666666666668 0.41852678571428714  24.422222222222224 0  25.6 0  C 26.77777777777778 0  27.783333333333335 0.41852678571428714  28.616666666666667 1.255580357142858  Z " fill-rule="nonzero" fill="#ffffff" stroke="none" fill-opacity="0.996078431372549" transform="matrix(1 0 0 1 524 471 )" />
  </g>
</svg>