<?xml version="1.0" encoding="utf-8"?>
<svg version="1.1" xmlns:xlink="http://www.w3.org/1999/xlink" width="30px" height="24px" xmlns="http://www.w3.org/2000/svg">
  <g transform="matrix(1 0 0 1 -1704 -725 )">
    <path d="M 16.57366071428571 3.0660042583392473  C 15.089285714285714 2.4755145493257613  13.493303571428571 2.180269694819021  11.785714285714285 2.180269694819021  C 10.078125 2.180269694819021  8.482142857142858 2.4755145493257613  6.997767857142858 3.0660042583392473  C 5.513392857142858 3.6564939673527306  4.333147321428572 4.457061745919088  3.45703125 5.467707594038324  C 2.580915178571429 6.478353442157558  2.142857142857143 7.562810503903476  2.142857142857143 8.72107877927608  C 2.142857142857143 9.65223562810504  2.438616071428572 10.549325762952446  3.030133928571429 11.41234918381831  C 3.621651785714286 12.275372604684174  4.453125 13.024840312278211  5.524553571428572 13.660752306600427  L 7.1484375 14.614620298083748  L 6.5625 16.04542228530873  C 6.9419642857142865 15.818310858765079  7.28794642857143 15.596877217885023  7.600446428571429 15.381121362668559  L 8.337053571428571 14.853087295954579  L 9.224330357142856 15.023420865862313  C 10.094866071428571 15.18239886444287  10.948660714285715 15.261887863733143  11.785714285714285 15.261887863733143  C 13.493303571428571 15.261887863733143  15.089285714285714 14.966643009226404  16.57366071428571 14.376153300212918  C 18.058035714285715 13.785663591199432  19.238281250000004 12.985095812633073  20.11439732142857 11.974449964513838  C 20.990513392857146 10.963804116394606  21.42857142857143 9.879347054648687  21.42857142857143 8.72107877927608  C 21.42857142857143 7.562810503903476  20.990513392857146 6.478353442157558  20.11439732142857 5.467707594038324  C 19.238281250000004 4.457061745919088  18.058035714285715 3.6564939673527306  16.57366071428571 3.0660042583392473  Z M 5.867745535714286 1.1667849538679924  C 7.681361607142858 0.3889283179559966  9.65401785714286 0  11.785714285714285 0  C 13.917410714285715 0  15.890066964285715 0.3889283179559966  17.70368303571429 1.1667849538679924  C 19.517299107142858 1.944641589779983  20.94866071428572 3.003548616039742  21.997767857142858 4.343506032647268  C 23.046875000000004 5.683463449254788  23.57142857142857 7.142654364797728  23.57142857142857 8.72107877927608  C 23.57142857142857 10.299503193754434  23.046875000000004 11.758694109297373  21.997767857142858 13.098651525904899  C 20.94866071428572 14.438608942512417  19.517299107142858 15.497515968772177  17.70368303571429 16.275372604684172  C 15.890066964285715 17.053229240596163  13.917410714285715 17.442157558552164  11.785714285714285 17.442157558552164  C 10.82589285714286 17.442157558552164  9.84375 17.3513129879347  8.839285714285715 17.16962384669979  C 7.455357142857144 18.168914123491838  5.904017857142858 18.89567068843151  4.185267857142858 19.349893541518806  C 3.783482142857143 19.452093683463453  3.303571428571429 19.54293825408091  2.745535714285714 19.622427253371185  L 2.6953125 19.622427253371185  C 2.5725446428571432 19.622427253371185  2.4581473214285716 19.577004968062454  2.352120535714286 19.486160397444998  C 2.24609375 19.395315826827538  2.1819196428571432 19.276082327892123  2.159598214285714 19.128459900638752  C 2.1484375000000004 19.094393186657204  2.142857142857143 19.05748757984386  2.142857142857143 19.017743080198724  C 2.142857142857143 18.977998580553585  2.145647321428572 18.94109297374024  2.151227678571429 18.907026259758695  C 2.1568080357142856 18.872959545777146  2.16796875 18.8388928317956  2.184709821428571 18.804826117814052  L 2.2265625 18.719659332860186  C 2.2265625 18.719659332860186  2.24609375 18.688431511710434  2.28515625 18.62597586941093  C 2.3242187500000004 18.563520227111425  2.346540178571429 18.535131298793473  2.352120535714286 18.540809084457063  C 2.3577008928571432 18.546486870120653  2.3828125000000004 18.5180979418027  2.427455357142857 18.455642299503193  C 2.472098214285715 18.39318665720369  2.494419642857143 18.36763662171753  2.494419642857143 18.378992193044713  C 2.5502232142857144 18.31085876508162  2.678571428571429 18.168914123491835  2.879464285714286 17.953158268275374  C 3.080357142857143 17.737402413058906  3.225446428571429 17.569907735982966  3.314732142857143 17.45067423704755  C 3.404017857142857 17.331440738112136  3.5295758928571432 17.16678495386799  3.69140625 16.956706884315118  C 3.8532366071428577 16.74662881476224  3.9927455357142856 16.52803406671398  4.109933035714286 16.300922640170334  C 4.227120535714286 16.073811213626684  4.341517857142858 15.823988644428674  4.453125 15.551454932576295  C 3.069196428571428 14.733853797019163  1.9810267857142858 13.72888573456352  1.1886160714285714 12.536550745209368  C 0.3962053571428571 11.344215755855217  0 10.072391767210785  0 8.72107877927608  C 0 7.142654364797728  0.5245535714285714 5.683463449254788  1.5736607142857144 4.343506032647268  C 2.622767857142857 3.003548616039742  4.054129464285714 1.944641589779983  5.867745535714286 1.1667849538679924  Z M 28.81138392857143 16.905606813342793  C 28.01897321428572 18.092264017033358  26.930803571428577 19.094393186657204  25.546875 19.911994322214337  C 25.658482142857142 20.184528034066712  25.77287946428571 20.43435060326473  25.89006696428571 20.661462029808373  C 26.00725446428572 20.88857345635202  26.146763392857146 21.107168204400285  26.30859375 21.31724627395316  C 26.470424107142858 21.52732434350603  26.595982142857146 21.691980127750178  26.685267857142858 21.811213626685593  C 26.774553571428577 21.930447125621008  26.91964285714286 22.097941802696948  27.12053571428571 22.313697657913416  C 27.321428571428573 22.52945351312988  27.44977678571429 22.67139815471966  27.505580357142858 22.739531582682755  C 27.516741071428577 22.750887154009938  27.539062500000004 22.776437189496097  27.572544642857142 22.816181689141235  C 27.606026785714292 22.85592618878637  27.631138392857146 22.88431511710433  27.64787946428571 22.9013484740951  C 27.664620535714292 22.918381831085878  27.68694196428572 22.946770759403833  27.71484375 22.98651525904897  C 27.742745535714285 23.026259758694106  27.76227678571429 23.057487579843862  27.7734375 23.080198722498224  L 27.81529017857143 23.165365507452094  C 27.81529017857143 23.165365507452094  27.826450892857146 23.19943222143364  27.84877232142857 23.267565649396737  C 27.87109375 23.33569907735983  27.87388392857143 23.372604684173172  27.857142857142858 23.378282469836762  C 27.84040178571429 23.38396025550035  27.83482142857143 23.420865862313697  27.84040178571429 23.48899929027679  C 27.806919642857142 23.647977288857344  27.734375000000004 23.772888573456356  27.622767857142858 23.863733144073812  C 27.51116071428572 23.95457771469127  27.388392857142858 23.99432221433641  27.25446428571429 23.982966643009227  C 26.696428571428577 23.90347764371895  26.21651785714286 23.81263307310149  25.814732142857142 23.71043293115685  C 24.095982142857146 23.256210078069554  22.544642857142858 22.52945351312988  21.16071428571429 21.530163236337827  C 20.15625 21.711852377572747  19.174107142857146 21.802696948190203  18.21428571428571 21.802696948190203  C 15.189732142857142 21.802696948190203  12.555803571428571 21.053229240596167  10.3125 19.55429382540809  C 10.959821428571429 19.599716110716823  11.450892857142856 19.622427253371185  11.785714285714285 19.622427253371185  C 13.582589285714286 19.622427253371185  15.306919642857142 19.366926898509583  16.958705357142858 18.855926188786373  C 18.610491071428573 18.344925479063164  20.083705357142858 17.6124911284599  21.37834821428571 16.65862313697658  C 22.7734375 15.613910574875797  23.844866071428577 14.410220014194465  24.59263392857143 13.047551454932577  C 25.34040178571428 11.684882895670688  25.71428571428571 10.242725337118522  25.71428571428571 8.72107877927608  C 25.71428571428571 7.846699787083037  25.585937499999996 6.983676366217175  25.32924107142857 6.132008516678495  C 26.76897321428571 6.938254080908444  27.90736607142857 7.948899929027678  28.744419642857142 9.163946061036196  C 29.58147321428571 10.378992193044711  30 11.684882895670688  30 13.081618168914122  C 30 14.44428672817601  29.603794642857146 15.718949609652233  28.81138392857143 16.905606813342793  Z " fill-rule="nonzero" fill="#ffffff" stroke="none" fill-opacity="0.996078431372549" transform="matrix(1 0 0 1 1704 725 )" />
  </g>
</svg>