<?xml version="1.0" encoding="utf-8"?>
<svg version="1.1" xmlns:xlink="http://www.w3.org/1999/xlink" width="28px" height="24px" xmlns="http://www.w3.org/2000/svg">
  <g transform="matrix(1 0 0 1 -1784 -725 )">
    <path d="M 9.4140625 8.5859375  C 9.8046875 8.9765625  10 9.447916666666666  10 10  C 10 10.552083333333332  9.8046875 11.0234375  9.4140625 11.4140625  C 9.0234375 11.8046875  8.552083333333334 12  8 12  C 7.447916666666668 12  6.976562500000001 11.8046875  6.5859375 11.4140625  C 6.1953125 11.0234375  6 10.552083333333332  6 10  C 6 9.447916666666666  6.1953125 8.9765625  6.5859375 8.5859375  C 6.976562500000001 8.1953125  7.447916666666668 8  8 8  C 8.552083333333334 8  9.0234375 8.1953125  9.4140625 8.5859375  Z M 15.414062499999998 8.5859375  C 15.8046875 8.9765625  16 9.447916666666666  16 10  C 16 10.552083333333332  15.8046875 11.0234375  15.414062499999998 11.4140625  C 15.0234375 11.8046875  14.552083333333336 12  14 12  C 13.447916666666668 12  12.976562500000002 11.8046875  12.5859375 11.4140625  C 12.1953125 11.0234375  12 10.552083333333332  12 10  C 12 9.447916666666666  12.1953125 8.9765625  12.5859375 8.5859375  C 12.976562500000002 8.1953125  13.447916666666668 8  14 8  C 14.552083333333336 8  15.0234375 8.1953125  15.414062499999998 8.5859375  Z M 21.4140625 8.5859375  C 21.8046875 8.9765625  22 9.447916666666666  22 10  C 22 10.552083333333332  21.8046875 11.0234375  21.4140625 11.4140625  C 21.0234375 11.8046875  20.552083333333336 12  20 12  C 19.447916666666668 12  18.9765625 11.8046875  18.5859375 11.4140625  C 18.1953125 11.0234375  18 10.552083333333332  18 10  C 18 9.447916666666666  18.1953125 8.9765625  18.5859375 8.5859375  C 18.9765625 8.1953125  19.447916666666668 8  20 8  C 20.552083333333336 8  21.0234375 8.1953125  21.4140625 8.5859375  Z M 19.9609375 3.085937499999999  C 18.111979166666668 2.361979166666665  16.125 2.000000000000001  14 2.000000000000001  C 11.875 2.000000000000001  9.888020833333334 2.361979166666665  8.0390625 3.085937499999999  C 6.190104166666667 3.809895833333333  4.721354166666667 4.786458333333332  3.6328125 6.015624999999999  C 2.5442708333333335 7.244791666666663  2 8.572916666666664  2 10  C 2 11.166666666666668  2.3723958333333335 12.278645833333334  3.1171875 13.3359375  C 3.861979166666667 14.393229166666666  4.911458333333334 15.307291666666666  6.265625 16.078125  L 7.624999999999999 16.859375  L 7.203125 18.359375  C 6.953125 19.307291666666668  6.588541666666667 20.203125  6.109375 21.046875  C 7.692708333333334 20.390625  9.125 19.5  10.40625 18.375  L 11.078125 17.78125  L 11.96875 17.875  C 12.6875 17.958333333333332  13.364583333333334 18  14 18  C 16.125 18  18.111979166666668 17.63802083333333  19.9609375 16.9140625  C 21.809895833333336 16.190104166666664  23.278645833333336 15.213541666666666  24.3671875 13.984375000000002  C 25.455729166666668 12.755208333333332  26 11.427083333333332  26 10  C 26 8.572916666666664  25.455729166666668 7.244791666666663  24.3671875 6.015624999999999  C 23.278645833333336 4.786458333333332  21.809895833333336 3.809895833333333  19.9609375 3.085937499999999  Z M 26.890625 6.1171875  C 27.630208333333336 7.351562499999999  28 8.645833333333332  28 10  C 28 11.8125  27.375 13.486979166666664  26.125 15.0234375  C 24.875 16.55989583333333  23.177083333333336 17.7734375  21.03125 18.6640625  C 18.885416666666668 19.5546875  16.541666666666668 20  14 20  C 13.270833333333334 20  12.515625 19.958333333333332  11.734375 19.875  C 9.671875 21.697916666666668  7.276041666666668 22.958333333333332  4.546875 23.65625  C 4.036458333333334 23.802083333333332  3.4427083333333335 23.916666666666668  2.765625 24  L 2.6875 24  C 2.53125 24  2.390625 23.9453125  2.265625 23.8359375  C 2.140625 23.7265625  2.057291666666667 23.583333333333332  2.015625 23.40625  L 2.015625 23.390625  C 1.9843750000000004 23.348958333333336  1.9817708333333335 23.286458333333336  2.0078125 23.203125  C 2.033854166666667 23.119791666666668  2.0442708333333335 23.067708333333332  2.0390625 23.046875  C 2.033854166666667 23.026041666666668  2.057291666666667 22.9765625  2.109375 22.8984375  L 2.203125 22.7578125  C 2.203125 22.7578125  2.2395833333333335 22.713541666666668  2.3125 22.625  C 2.385416666666667 22.536458333333332  2.4270833333333335 22.489583333333332  2.4375 22.484375  C 2.510416666666667 22.401041666666668  2.671875 22.221354166666668  2.921875 21.9453125  C 3.171875 21.669270833333332  3.3515625 21.471354166666668  3.4609375 21.3515625  C 3.5703125000000004 21.231770833333332  3.7317708333333335 21.026041666666668  3.9453125 20.734375  C 4.158854166666667 20.442708333333332  4.328125 20.177083333333332  4.453125 19.9375  C 4.578125 19.697916666666668  4.71875 19.390625  4.875 19.015625  C 5.03125 18.640625  5.166666666666667 18.244791666666668  5.28125 17.828125  C 3.6458333333333335 16.901041666666664  2.3567708333333335 15.755208333333332  1.4140625 14.390625  C 0.47135416666666663 13.026041666666663  0 11.5625  0 10  C 0 8.645833333333332  0.36979166666666663 7.351562499999999  1.109375 6.1171875  C 1.8489583333333335 4.882812500000001  2.84375 3.8177083333333313  4.09375 2.921874999999999  C 5.34375 2.0260416666666643  6.833333333333334 1.3151041666666634  8.5625 0.7890624999999991  C 10.291666666666668 0.26302083333333215  12.104166666666668 0  14 0  C 15.895833333333334 0  17.708333333333336 0.26302083333333215  19.4375 0.7890624999999991  C 21.166666666666668 1.3151041666666634  22.65625 2.0260416666666643  23.90625 2.921874999999999  C 25.156250000000004 3.8177083333333313  26.15104166666667 4.882812500000001  26.890625 6.1171875  Z " fill-rule="nonzero" fill="#ffffff" stroke="none" fill-opacity="0.996078431372549" transform="matrix(1 0 0 1 1784 725 )" />
  </g>
</svg>